<?xml version="1.0" encoding="UTF-8" standalone="no"?>
<!-- Created with Inkscape (http://www.inkscape.org/) -->

<svg
   width="431.5"
   height="211"
   viewBox="0 0 114.16771 55.827084"
   version="1.1"
   id="svg5"
   inkscape:version="1.1.1 (c3084ef, 2021-09-22)"
   sodipodi:docname="logo.svg"
   inkscape:export-filename="/Users/kamil/Documents/workspace/Assets/totsu/icon.ico"
   inkscape:export-xdpi="96"
   inkscape:export-ydpi="96"
   xmlns:inkscape="http://www.inkscape.org/namespaces/inkscape"
   xmlns:sodipodi="http://sodipodi.sourceforge.net/DTD/sodipodi-0.dtd"
   xmlns="http://www.w3.org/2000/svg"
   xmlns:svg="http://www.w3.org/2000/svg">
  <sodipodi:namedview
     id="namedview7"
     pagecolor="#ffffff"
     bordercolor="#666666"
     borderopacity="1.0"
     inkscape:pageshadow="2"
     inkscape:pageopacity="0.0"
     inkscape:pagecheckerboard="0"
     inkscape:document-units="mm"
     showgrid="false"
     units="px"
     inkscape:zoom="1.5915268"
     inkscape:cx="24.190607"
     inkscape:cy="114.98393"
     inkscape:window-width="3440"
     inkscape:window-height="1412"
     inkscape:window-x="0"
     inkscape:window-y="0"
     inkscape:window-maximized="0"
     inkscape:current-layer="g3561"
     width="431.64499px"
     height="213px" />
  <defs
     id="defs2">
    <filter
       style="color-interpolation-filters:sRGB"
       inkscape:label="Drop Shadow"
       id="filter7023"
       x="-0.21950847"
       y="-1.1087126"
       width="1.4617512"
       height="3.3322537">
      <feFlood
         flood-opacity="0.101961"
         flood-color="rgb(55,84,170)"
         result="flood"
         id="feFlood7013" />
      <feComposite
         in="flood"
         in2="SourceGraphic"
         operator="in"
         result="composite1"
         id="feComposite7015" />
      <feGaussianBlur
         in="composite1"
         stdDeviation="12"
         result="blur"
         id="feGaussianBlur7017" />
      <feOffset
         dx="3"
         dy="3"
         result="offset"
         id="feOffset7019" />
      <feComposite
         in="SourceGraphic"
         in2="offset"
         operator="over"
         result="composite2"
         id="feComposite7021" />
    </filter>
    <filter
       style="color-interpolation-filters:sRGB"
       inkscape:label="Drop Shadow"
       id="filter7035"
       x="-0.21959737"
       y="-1.0076106"
       width="1.4619318"
       height="3.119549">
      <feFlood
         flood-opacity="0.101961"
         flood-color="rgb(55,84,170)"
         result="flood"
         id="feFlood7025" />
      <feComposite
         in="flood"
         in2="SourceGraphic"
         operator="in"
         result="composite1"
         id="feComposite7027" />
      <feGaussianBlur
         in="composite1"
         stdDeviation="12"
         result="blur"
         id="feGaussianBlur7029" />
      <feOffset
         dx="3"
         dy="3"
         result="offset"
         id="feOffset7031" />
      <feComposite
         in="SourceGraphic"
         in2="offset"
         operator="over"
         result="composite2"
         id="feComposite7033" />
    </filter>
    <filter
       style="color-interpolation-filters:sRGB"
       inkscape:label="Drop Shadow"
       id="filter7047"
       x="-0.21959737"
       y="-1.0076106"
       width="1.4619318"
       height="3.119549">
      <feFlood
         flood-opacity="0.101961"
         flood-color="rgb(55,84,170)"
         result="flood"
         id="feFlood7037" />
      <feComposite
         in="flood"
         in2="SourceGraphic"
         operator="in"
         result="composite1"
         id="feComposite7039" />
      <feGaussianBlur
         in="composite1"
         stdDeviation="12"
         result="blur"
         id="feGaussianBlur7041" />
      <feOffset
         dx="3"
         dy="3"
         result="offset"
         id="feOffset7043" />
      <feComposite
         in="SourceGraphic"
         in2="offset"
         operator="over"
         result="composite2"
         id="feComposite7045" />
    </filter>
    <filter
       style="color-interpolation-filters:sRGB"
       inkscape:label="Drop Shadow"
       id="filter7059"
       x="-0.21959737"
       y="-1.0076106"
       width="1.4619318"
       height="3.119549">
      <feFlood
         flood-opacity="0.101961"
         flood-color="rgb(55,84,170)"
         result="flood"
         id="feFlood7049" />
      <feComposite
         in="flood"
         in2="SourceGraphic"
         operator="in"
         result="composite1"
         id="feComposite7051" />
      <feGaussianBlur
         in="composite1"
         stdDeviation="12"
         result="blur"
         id="feGaussianBlur7053" />
      <feOffset
         dx="3"
         dy="3"
         result="offset"
         id="feOffset7055" />
      <feComposite
         in="SourceGraphic"
         in2="offset"
         operator="over"
         result="composite2"
         id="feComposite7057" />
    </filter>
    <filter
       style="color-interpolation-filters:sRGB"
       inkscape:label="Drop Shadow"
       id="filter7071"
       x="-0.21959737"
       y="-1.0076106"
       width="1.4619318"
       height="3.119549">
      <feFlood
         flood-opacity="0.101961"
         flood-color="rgb(55,84,170)"
         result="flood"
         id="feFlood7061" />
      <feComposite
         in="flood"
         in2="SourceGraphic"
         operator="in"
         result="composite1"
         id="feComposite7063" />
      <feGaussianBlur
         in="composite1"
         stdDeviation="12"
         result="blur"
         id="feGaussianBlur7065" />
      <feOffset
         dx="3"
         dy="3"
         result="offset"
         id="feOffset7067" />
      <feComposite
         in="SourceGraphic"
         in2="offset"
         operator="over"
         result="composite2"
         id="feComposite7069" />
    </filter>
    <filter
       style="color-interpolation-filters:sRGB"
       inkscape:label="Drop Shadow"
       id="filter7083"
       x="-0.21959737"
       y="-1.0076106"
       width="1.4619318"
       height="3.119549">
      <feFlood
         flood-opacity="0.101961"
         flood-color="rgb(55,84,170)"
         result="flood"
         id="feFlood7073" />
      <feComposite
         in="flood"
         in2="SourceGraphic"
         operator="in"
         result="composite1"
         id="feComposite7075" />
      <feGaussianBlur
         in="composite1"
         stdDeviation="12"
         result="blur"
         id="feGaussianBlur7077" />
      <feOffset
         dx="3"
         dy="3"
         result="offset"
         id="feOffset7079" />
      <feComposite
         in="SourceGraphic"
         in2="offset"
         operator="over"
         result="composite2"
         id="feComposite7081" />
    </filter>
    <filter
       style="color-interpolation-filters:sRGB"
       inkscape:label="Drop Shadow"
       id="filter7095"
       x="-0.21959737"
       y="-1.0076106"
       width="1.4619318"
       height="3.119549">
      <feFlood
         flood-opacity="0.101961"
         flood-color="rgb(55,84,170)"
         result="flood"
         id="feFlood7085" />
      <feComposite
         in="flood"
         in2="SourceGraphic"
         operator="in"
         result="composite1"
         id="feComposite7087" />
      <feGaussianBlur
         in="composite1"
         stdDeviation="12"
         result="blur"
         id="feGaussianBlur7089" />
      <feOffset
         dx="3"
         dy="3"
         result="offset"
         id="feOffset7091" />
      <feComposite
         in="SourceGraphic"
         in2="offset"
         operator="over"
         result="composite2"
         id="feComposite7093" />
    </filter>
    <filter
       style="color-interpolation-filters:sRGB"
       inkscape:label="Drop Shadow"
       id="filter10155"
       x="-0.15234455"
       y="-1.0075305"
       width="1.3204713"
       height="3.1194365">
      <feFlood
         flood-opacity="0.101961"
         flood-color="rgb(55,84,170)"
         result="flood"
         id="feFlood10145" />
      <feComposite
         in="flood"
         in2="SourceGraphic"
         operator="in"
         result="composite1"
         id="feComposite10147" />
      <feGaussianBlur
         in="composite1"
         stdDeviation="12"
         result="blur"
         id="feGaussianBlur10149" />
      <feOffset
         dx="3"
         dy="3"
         result="offset"
         id="feOffset10151" />
      <feComposite
         in="SourceGraphic"
         in2="offset"
         operator="over"
         result="composite2"
         id="feComposite10153" />
    </filter>
    <filter
       style="color-interpolation-filters:sRGB"
       inkscape:label="Drop Shadow"
       id="filter10167"
       x="-0.15234455"
       y="-1.0075305"
       width="1.3204713"
       height="3.1194365">
      <feFlood
         flood-opacity="0.101961"
         flood-color="rgb(55,84,170)"
         result="flood"
         id="feFlood10157" />
      <feComposite
         in="flood"
         in2="SourceGraphic"
         operator="in"
         result="composite1"
         id="feComposite10159" />
      <feGaussianBlur
         in="composite1"
         stdDeviation="12"
         result="blur"
         id="feGaussianBlur10161" />
      <feOffset
         dx="3"
         dy="3"
         result="offset"
         id="feOffset10163" />
      <feComposite
         in="SourceGraphic"
         in2="offset"
         operator="over"
         result="composite2"
         id="feComposite10165" />
    </filter>
    <filter
       style="color-interpolation-filters:sRGB"
       inkscape:label="Drop Shadow"
       id="filter10179"
       x="-0.15234455"
       y="-1.0075305"
       width="1.3204713"
       height="3.1194365">
      <feFlood
         flood-opacity="0.101961"
         flood-color="rgb(55,84,170)"
         result="flood"
         id="feFlood10169" />
      <feComposite
         in="flood"
         in2="SourceGraphic"
         operator="in"
         result="composite1"
         id="feComposite10171" />
      <feGaussianBlur
         in="composite1"
         stdDeviation="12"
         result="blur"
         id="feGaussianBlur10173" />
      <feOffset
         dx="3"
         dy="3"
         result="offset"
         id="feOffset10175" />
      <feComposite
         in="SourceGraphic"
         in2="offset"
         operator="over"
         result="composite2"
         id="feComposite10177" />
    </filter>
    <filter
       style="color-interpolation-filters:sRGB"
       inkscape:label="Drop Shadow"
       id="filter10191"
       x="-0.15234455"
       y="-1.0075305"
       width="1.3204713"
       height="3.1194365">
      <feFlood
         flood-opacity="0.101961"
         flood-color="rgb(55,84,170)"
         result="flood"
         id="feFlood10181" />
      <feComposite
         in="flood"
         in2="SourceGraphic"
         operator="in"
         result="composite1"
         id="feComposite10183" />
      <feGaussianBlur
         in="composite1"
         stdDeviation="12"
         result="blur"
         id="feGaussianBlur10185" />
      <feOffset
         dx="3"
         dy="3"
         result="offset"
         id="feOffset10187" />
      <feComposite
         in="SourceGraphic"
         in2="offset"
         operator="over"
         result="composite2"
         id="feComposite10189" />
    </filter>
    <filter
       style="color-interpolation-filters:sRGB"
       inkscape:label="Drop Shadow"
       id="filter10203"
       x="-0.15234455"
       y="-1.0075305"
       width="1.3204713"
       height="3.1194365">
      <feFlood
         flood-opacity="0.101961"
         flood-color="rgb(55,84,170)"
         result="flood"
         id="feFlood10193" />
      <feComposite
         in="flood"
         in2="SourceGraphic"
         operator="in"
         result="composite1"
         id="feComposite10195" />
      <feGaussianBlur
         in="composite1"
         stdDeviation="12"
         result="blur"
         id="feGaussianBlur10197" />
      <feOffset
         dx="3"
         dy="3"
         result="offset"
         id="feOffset10199" />
      <feComposite
         in="SourceGraphic"
         in2="offset"
         operator="over"
         result="composite2"
         id="feComposite10201" />
    </filter>
    <filter
       style="color-interpolation-filters:sRGB"
       inkscape:label="Drop Shadow"
       id="filter10215"
       x="-0.15234455"
       y="-1.0075305"
       width="1.3204713"
       height="3.1194365">
      <feFlood
         flood-opacity="0.101961"
         flood-color="rgb(55,84,170)"
         result="flood"
         id="feFlood10205" />
      <feComposite
         in="flood"
         in2="SourceGraphic"
         operator="in"
         result="composite1"
         id="feComposite10207" />
      <feGaussianBlur
         in="composite1"
         stdDeviation="12"
         result="blur"
         id="feGaussianBlur10209" />
      <feOffset
         dx="3"
         dy="3"
         result="offset"
         id="feOffset10211" />
      <feComposite
         in="SourceGraphic"
         in2="offset"
         operator="over"
         result="composite2"
         id="feComposite10213" />
    </filter>
    <filter
       style="color-interpolation-filters:sRGB"
       inkscape:label="Drop Shadow"
       id="filter10227"
       x="-0.15234455"
       y="-1.0075305"
       width="1.3204713"
       height="3.1194365">
      <feFlood
         flood-opacity="0.101961"
         flood-color="rgb(55,84,170)"
         result="flood"
         id="feFlood10217" />
      <feComposite
         in="flood"
         in2="SourceGraphic"
         operator="in"
         result="composite1"
         id="feComposite10219" />
      <feGaussianBlur
         in="composite1"
         stdDeviation="12"
         result="blur"
         id="feGaussianBlur10221" />
      <feOffset
         dx="3"
         dy="3"
         result="offset"
         id="feOffset10223" />
      <feComposite
         in="SourceGraphic"
         in2="offset"
         operator="over"
         result="composite2"
         id="feComposite10225" />
    </filter>
    <filter
       style="color-interpolation-filters:sRGB"
       inkscape:label="Drop Shadow"
       id="filter10239"
       x="-0.15234455"
       y="-1.0075305"
       width="1.3204713"
       height="3.1194365">
      <feFlood
         flood-opacity="0.101961"
         flood-color="rgb(55,84,170)"
         result="flood"
         id="feFlood10229" />
      <feComposite
         in="flood"
         in2="SourceGraphic"
         operator="in"
         result="composite1"
         id="feComposite10231" />
      <feGaussianBlur
         in="composite1"
         stdDeviation="12"
         result="blur"
         id="feGaussianBlur10233" />
      <feOffset
         dx="3"
         dy="3"
         result="offset"
         id="feOffset10235" />
      <feComposite
         in="SourceGraphic"
         in2="offset"
         operator="over"
         result="composite2"
         id="feComposite10237" />
    </filter>
    <filter
       style="color-interpolation-filters:sRGB"
       inkscape:label="Drop Shadow"
       id="filter10251"
       x="-0.15234455"
       y="-1.0075305"
       width="1.3204713"
       height="3.1194365">
      <feFlood
         flood-opacity="0.101961"
         flood-color="rgb(55,84,170)"
         result="flood"
         id="feFlood10241" />
      <feComposite
         in="flood"
         in2="SourceGraphic"
         operator="in"
         result="composite1"
         id="feComposite10243" />
      <feGaussianBlur
         in="composite1"
         stdDeviation="12"
         result="blur"
         id="feGaussianBlur10245" />
      <feOffset
         dx="3"
         dy="3"
         result="offset"
         id="feOffset10247" />
      <feComposite
         in="SourceGraphic"
         in2="offset"
         operator="over"
         result="composite2"
         id="feComposite10249" />
    </filter>
    <filter
       style="color-interpolation-filters:sRGB"
       inkscape:label="Drop Shadow"
       id="filter10263"
       x="-0.15234455"
       y="-1.0075305"
       width="1.3204713"
       height="3.1194365">
      <feFlood
         flood-opacity="0.101961"
         flood-color="rgb(55,84,170)"
         result="flood"
         id="feFlood10253" />
      <feComposite
         in="flood"
         in2="SourceGraphic"
         operator="in"
         result="composite1"
         id="feComposite10255" />
      <feGaussianBlur
         in="composite1"
         stdDeviation="12"
         result="blur"
         id="feGaussianBlur10257" />
      <feOffset
         dx="3"
         dy="3"
         result="offset"
         id="feOffset10259" />
      <feComposite
         in="SourceGraphic"
         in2="offset"
         operator="over"
         result="composite2"
         id="feComposite10261" />
    </filter>
    <filter
       style="color-interpolation-filters:sRGB"
       inkscape:label="Drop Shadow"
       id="filter10275"
       x="-0.15234455"
       y="-1.0075305"
       width="1.3204713"
       height="3.1194365">
      <feFlood
         flood-opacity="0.101961"
         flood-color="rgb(55,84,170)"
         result="flood"
         id="feFlood10265" />
      <feComposite
         in="flood"
         in2="SourceGraphic"
         operator="in"
         result="composite1"
         id="feComposite10267" />
      <feGaussianBlur
         in="composite1"
         stdDeviation="12"
         result="blur"
         id="feGaussianBlur10269" />
      <feOffset
         dx="3"
         dy="3"
         result="offset"
         id="feOffset10271" />
      <feComposite
         in="SourceGraphic"
         in2="offset"
         operator="over"
         result="composite2"
         id="feComposite10273" />
    </filter>
    <filter
       style="color-interpolation-filters:sRGB"
       inkscape:label="Drop Shadow"
       id="filter10287"
       x="-0.15234455"
       y="-1.0075305"
       width="1.3204713"
       height="3.1194365">
      <feFlood
         flood-opacity="0.101961"
         flood-color="rgb(55,84,170)"
         result="flood"
         id="feFlood10277" />
      <feComposite
         in="flood"
         in2="SourceGraphic"
         operator="in"
         result="composite1"
         id="feComposite10279" />
      <feGaussianBlur
         in="composite1"
         stdDeviation="12"
         result="blur"
         id="feGaussianBlur10281" />
      <feOffset
         dx="3"
         dy="3"
         result="offset"
         id="feOffset10283" />
      <feComposite
         in="SourceGraphic"
         in2="offset"
         operator="over"
         result="composite2"
         id="feComposite10285" />
    </filter>
    <filter
       style="color-interpolation-filters:sRGB"
       inkscape:label="Drop Shadow"
       id="filter10299"
       x="-0.038942739"
       y="-1.0167584"
       width="1.0818982"
       height="3.1382859">
      <feFlood
         flood-opacity="0.101961"
         flood-color="rgb(55,84,170)"
         result="flood"
         id="feFlood10289" />
      <feComposite
         in="flood"
         in2="SourceGraphic"
         operator="in"
         result="composite1"
         id="feComposite10291" />
      <feGaussianBlur
         in="composite1"
         stdDeviation="12"
         result="blur"
         id="feGaussianBlur10293" />
      <feOffset
         dx="3"
         dy="3"
         result="offset"
         id="feOffset10295" />
      <feComposite
         in="SourceGraphic"
         in2="offset"
         operator="over"
         result="composite2"
         id="feComposite10297" />
    </filter>
    <filter
       style="color-interpolation-filters:sRGB"
       inkscape:label="Drop Shadow"
       id="filter10311"
       x="-0.038942739"
       y="-1.0167584"
       width="1.0818982"
       height="3.1382859">
      <feFlood
         flood-opacity="0.101961"
         flood-color="rgb(55,84,170)"
         result="flood"
         id="feFlood10301" />
      <feComposite
         in="flood"
         in2="SourceGraphic"
         operator="in"
         result="composite1"
         id="feComposite10303" />
      <feGaussianBlur
         in="composite1"
         stdDeviation="12"
         result="blur"
         id="feGaussianBlur10305" />
      <feOffset
         dx="3"
         dy="3"
         result="offset"
         id="feOffset10307" />
      <feComposite
         in="SourceGraphic"
         in2="offset"
         operator="over"
         result="composite2"
         id="feComposite10309" />
    </filter>
    <filter
       style="color-interpolation-filters:sRGB"
       inkscape:label="Drop Shadow"
       id="filter10323"
       x="-0.038942739"
       y="-1.0167584"
       width="1.0818982"
       height="3.1382859">
      <feFlood
         flood-opacity="0.101961"
         flood-color="rgb(55,84,170)"
         result="flood"
         id="feFlood10313" />
      <feComposite
         in="flood"
         in2="SourceGraphic"
         operator="in"
         result="composite1"
         id="feComposite10315" />
      <feGaussianBlur
         in="composite1"
         stdDeviation="12"
         result="blur"
         id="feGaussianBlur10317" />
      <feOffset
         dx="3"
         dy="3"
         result="offset"
         id="feOffset10319" />
      <feComposite
         in="SourceGraphic"
         in2="offset"
         operator="over"
         result="composite2"
         id="feComposite10321" />
    </filter>
  </defs>
  <g
     inkscape:label="Layer 1"
     inkscape:groupmode="layer"
     id="layer1">
    <g
       id="g3561"
       transform="matrix(0.99892493,0,0,0.998964,0.04228151,0.74589043)">
      <g
         aria-label="Hi, I am"
         id="text12721"
         style="font-size:7.06221px;line-height:1.25;letter-spacing:0.794498px;fill:#717171;stroke-width:0.46203">
        <path
           d="M 3.9131429,-0.60541958 V 4.4087496 H 3.2775439 V 2.1276557 H 0.51621981 V 4.4087496 H -0.1193791 V -0.60541958 H 0.51621981 V 1.5626789 H 3.2775439 v -2.16809848 z"
           style="font-weight:500;font-family:Raleway;-inkscape-font-specification:'Raleway Medium'"
           id="path3496" />
        <path
           d="M 5.8039386,4.4087496 V 0.72227592 H 6.4254131 V 4.4087496 Z m 0,-4.37857027 v -0.77684311 h 0.6214745 v 0.77684311 z"
           style="font-weight:500;font-family:Raleway;-inkscape-font-specification:'Raleway Medium'"
           id="path3498" />
        <path
           d="M 8.247242,4.9807886 8.3884862,4.3522519 H 8.1766199 V 3.6177821 H 8.7627833 V 4.3522519 L 8.550917,4.9807886 Z"
           style="font-weight:500;font-family:Raleway;-inkscape-font-specification:'Raleway Medium'"
           id="path3500" />
        <path
           d="m 13.196747,4.4087496 v -5.01416918 h 0.635599 V 4.4087496 Z"
           style="font-weight:500;font-family:Raleway;-inkscape-font-specification:'Raleway Medium'"
           id="path3502" />
        <path
           d="m 18.024979,3.3423559 q 0,-0.3531105 0.197742,-0.6073501 0.204804,-0.2613018 0.557915,-0.402546 0.35311,-0.1412442 0.819216,-0.1412442 0.247177,0 0.522603,0.042373 0.275427,0.035311 0.487293,0.1129953 V 2.0782203 q 0,-0.4237327 -0.25424,-0.6638478 -0.254239,-0.2471773 -0.720345,-0.2471773 -0.303675,0 -0.586163,0.1129953 -0.275427,0.1059332 -0.586164,0.3107373 L 18.236845,1.1530707 q 0.360173,-0.24717732 0.720346,-0.36723489 0.360172,-0.12711978 0.748594,-0.12711978 0.706221,0 1.115829,0.39548377 0.409608,0.3884215 0.409608,1.0875803 v 1.5607485 q 0,0.1129953 0.04237,0.169493 0.04943,0.049435 0.155368,0.056498 v 0.4802303 q -0.09181,0.014124 -0.162431,0.021187 -0.06356,0.00706 -0.105933,0.00706 -0.218928,0 -0.331924,-0.1200576 -0.105933,-0.1200575 -0.120057,-0.2542395 l -0.01412,-0.2330529 q -0.240115,0.3107372 -0.628536,0.4802302 -0.388422,0.1694931 -0.769781,0.1694931 -0.367235,0 -0.656786,-0.1483064 Q 18.349841,4.1756966 18.18741,3.9214571 18.024979,3.6601553 18.024979,3.3423559 Z m 2.401151,0.2613017 q 0.08475,-0.098871 0.134182,-0.1977419 0.04944,-0.1059331 0.04944,-0.1765552 V 2.7703168 q -0.218929,-0.084746 -0.459044,-0.1271197 -0.240115,-0.049435 -0.473168,-0.049435 -0.473168,0 -0.769781,0.1906797 -0.28955,0.1836174 -0.28955,0.5084791 0,0.1765552 0.09181,0.3460483 0.09887,0.1624308 0.282489,0.268364 0.190679,0.1059331 0.466106,0.1059331 0.28955,0 0.550852,-0.1129953 0.261302,-0.1200576 0.41667,-0.2966129 z"
           style="font-weight:500;font-family:Raleway;-inkscape-font-specification:'Raleway Medium'"
           id="path3504" />
        <path
           d="M 28.584308,4.4087496 H 27.962833 V 2.3465842 q 0,-0.5791012 -0.190679,-0.8545274 -0.183618,-0.2754262 -0.550853,-0.2754262 -0.374297,0 -0.677972,0.2754262 -0.303675,0.268364 -0.430795,0.6991588 v 2.217534 H 25.49106 V 2.3465842 q 0,-0.5861634 -0.183618,-0.8545274 -0.183617,-0.2754262 -0.550852,-0.2754262 -0.367235,0 -0.677972,0.268364 -0.303675,0.2613018 -0.430795,0.6991588 V 4.4087496 H 23.026348 V 0.72227592 h 0.564977 V 1.5132434 q 0.225991,-0.4096081 0.586164,-0.62853665 0.360172,-0.22599072 0.812154,-0.22599072 0.459043,0 0.73447,0.25423956 0.275426,0.24717731 0.338986,0.64266111 0.247177,-0.437857 0.600288,-0.66384774 0.35311,-0.23305293 0.805091,-0.23305293 0.3178,0 0.529666,0.12005757 0.218929,0.11299536 0.346049,0.3248617 0.127119,0.2048041 0.183617,0.4872925 0.0565,0.2824884 0.0565,0.6144122 z"
           style="font-weight:500;font-family:Raleway;-inkscape-font-specification:'Raleway Medium'"
           id="path3506" />
      </g>
      <g
         aria-label="KAMIL"
         id="text10383"
         style="font-size:28.2222px;line-height:1.25;letter-spacing:7.41532px;fill:#f28095;stroke-width:0.46203">
        <path
           d="M 0.16933323,29.330772 V 9.3212323 H 3.3302197 V 19.622335 L 12.756435,9.2930101 h 3.499552 L 8.3537713,18.154781 16.707543,29.330772 h -3.58422 L 6.3499951,20.158557 3.3302197,23.291222 v 6.03955 z"
           style="font-weight:600;font-family:Raleway;-inkscape-font-specification:'Raleway Semi-Bold'"
           id="path3626" />
        <path
           d="m 32.001265,9.2930101 h 2.991554 l 7.789327,20.0377619 h -3.33022 l -2.116665,-5.446884 h -7.732883 l -2.088443,5.446884 h -3.358441 z m 4.713108,12.2484349 -3.217331,-8.777104 -3.33022,8.777104 z"
           style="font-weight:600;font-family:Raleway;-inkscape-font-specification:'Raleway Semi-Bold'"
           id="path3628" />
        <path
           d="M 69.55172,29.330772 V 15.050339 L 63.65328,25.887664 H 61.790615 L 55.863953,15.050339 V 29.330772 H 52.703067 V 9.2930101 h 3.386664 L 62.721948,21.541445 69.354165,9.2930101 h 3.386664 V 29.330772 Z"
           style="font-weight:600;font-family:Raleway;-inkscape-font-specification:'Raleway Semi-Bold'"
           id="path3630" />
        <path
           d="M 84.647444,29.330772 V 9.2930101 h 3.160887 V 29.330772 Z"
           style="font-weight:600;font-family:Raleway;-inkscape-font-specification:'Raleway Semi-Bold'"
           id="path3632" />
        <path
           d="M 99.724654,29.330772 V 9.2930101 h 3.160886 V 26.536775 h 10.75266 v 2.793997 z"
           style="font-weight:600;font-family:Raleway;-inkscape-font-specification:'Raleway Semi-Bold'"
           id="path3634" />
      </g>
      <g
         aria-label="SOHLICH"
         id="text15247"
         style="font-size:17.6389px;line-height:1.25;letter-spacing:6.35598px;fill:#717171;stroke-width:0.46203">
        <path
           d="M 8.4313945,37.126709 Q 8.2550055,36.932681 7.9198664,36.721014 7.5847273,36.491708 7.1261159,36.29768 6.6675045,36.103652 6.1383374,35.98018 5.6091704,35.856708 5.0447256,35.856708 q -1.2347231,0 -1.8344457,0.458611 -0.5997226,0.458612 -0.5997226,1.270001 0,0.599723 0.3351391,0.952501 0.3351391,0.335139 1.0230563,0.564445 0.6879171,0.229305 1.7286122,0.493889 1.2700009,0.299861 2.2048626,0.723195 0.9348618,0.405694 1.428751,1.093612 0.4938892,0.687917 0.4938892,1.816806 0,0.952501 -0.352778,1.640418 -0.352778,0.687917 -0.9877785,1.12889 -0.6350004,0.423333 -1.4640287,0.635 -0.8290283,0.194028 -1.781529,0.194028 -0.9348617,0 -1.8697235,-0.194028 Q 2.4518072,46.440048 1.60514,46.069631 0.77611162,45.681576 0.07055559,45.13477 l 0.89958394,-1.693335 q 0.22930567,0.229306 0.65263937,0.511528 0.4409725,0.264584 1.0054173,0.511528 0.5820837,0.246945 1.252362,0.423334 0.6879171,0.15875 1.3934731,0.15875 1.1818064,0 1.7991679,-0.405695 0.6350004,-0.423333 0.6350004,-1.199445 0,-0.635 -0.4056947,-1.005417 Q 6.8968102,42.047962 6.1206985,41.783378 5.3445869,41.518795 4.268614,41.254211 3.0338909,40.919072 2.2048626,40.531017 1.3758342,40.125322 0.95250063,39.50796 q -0.40569472,-0.635 -0.40569472,-1.60514 0,-1.234723 0.59972259,-2.08139 0.5997227,-0.864306 1.6227789,-1.28764 1.0406951,-0.440972 2.3283349,-0.440972 0.8466672,0 1.60514,0.194028 0.7584727,0.176389 1.411112,0.493889 0.6702783,0.3175 1.2170842,0.723195 z"
           style="font-weight:600;font-family:Raleway;-inkscape-font-specification:'Raleway Semi-Bold'"
           id="path3655" />
        <path
           d="m 23.365669,46.792826 q -1.358195,0 -2.451807,-0.529167 -1.093612,-0.529167 -1.887362,-1.428751 -0.793751,-0.917223 -1.234723,-2.046112 -0.423334,-1.146529 -0.423334,-2.345974 0,-1.252362 0.458611,-2.381252 0.458612,-1.146528 1.270001,-2.028473 0.81139,-0.899584 1.905002,-1.411112 1.11125,-0.529167 2.39889,-0.529167 1.340556,0 2.434168,0.546806 1.111251,0.546806 1.887363,1.464028 0.79375,0.917223 1.217084,2.046113 0.440972,1.12889 0.440972,2.310696 0,1.252362 -0.458611,2.39889 -0.440973,1.12889 -1.252362,2.028474 -0.811389,0.881945 -1.92264,1.393473 -1.093612,0.511528 -2.381252,0.511528 z m -3.986391,-6.350004 q 0,0.881945 0.282222,1.710973 0.282222,0.829029 0.793751,1.481668 0.529167,0.635001 1.27,1.005417 0.740834,0.370417 1.658057,0.370417 0.952501,0 1.693335,-0.388055 0.740833,-0.388056 1.234723,-1.040696 0.511528,-0.670278 0.776111,-1.481667 0.264584,-0.829029 0.264584,-1.658057 0,-0.881945 -0.282223,-1.693334 -0.264583,-0.829029 -0.79375,-1.464029 -0.529167,-0.65264 -1.270001,-1.023056 -0.723195,-0.370417 -1.622779,-0.370417 -0.952501,0 -1.693334,0.388055 -0.740834,0.388056 -1.252362,1.040696 -0.511528,0.652639 -0.793751,1.464028 -0.264583,0.81139 -0.264583,1.658057 z"
           style="font-weight:600;font-family:Raleway;-inkscape-font-specification:'Raleway Semi-Bold'"
           id="path3657" />
        <path
           d="m 48.065279,34.181012 v 12.52362 h -1.993196 v -5.520976 h -6.314727 v 5.520976 H 37.7818 v -12.52362 h 1.975556 v 5.238754 h 6.314727 v -5.238754 z"
           style="font-weight:600;font-family:Raleway;-inkscape-font-specification:'Raleway Semi-Bold'"
           id="path3659" />
        <path
           d="m 57.229149,46.704632 v -12.52362 h 1.975557 v 10.777369 h 6.720421 v 1.746251 z"
           style="font-weight:600;font-family:Raleway;-inkscape-font-specification:'Raleway Semi-Bold'"
           id="path3661" />
        <path
           d="m 73.885971,46.704632 v -12.52362 h 1.975557 v 12.52362 z"
           style="font-weight:600;font-family:Raleway;-inkscape-font-specification:'Raleway Semi-Bold'"
           id="path3663" />
        <path
           d="m 84.236889,40.354628 q 0,-1.146529 0.405695,-2.240141 0.405695,-1.111251 1.181806,-2.010835 0.793751,-0.917222 1.922641,-1.446389 1.128889,-0.546806 2.55764,-0.546806 1.693335,0 2.928058,0.776111 1.234723,0.758473 1.834445,1.957918 l -1.552223,1.040695 Q 93.162173,37.126709 92.615367,36.685736 92.0862,36.244764 91.4512,36.068375 q -0.617362,-0.176389 -1.217084,-0.176389 -0.987779,0 -1.728613,0.405694 -0.740834,0.388056 -1.252362,1.040696 -0.493889,0.652639 -0.758472,1.464028 -0.246945,0.81139 -0.246945,1.622779 0,0.899584 0.299861,1.746251 0.299862,0.829029 0.829029,1.481668 0.546806,0.635 1.287639,1.005417 0.740834,0.370417 1.622779,0.370417 0.599723,0 1.252362,-0.211667 0.65264,-0.211666 1.199445,-0.652639 0.564445,-0.458611 0.881946,-1.199445 l 1.640417,0.934862 q -0.388056,0.934861 -1.217084,1.587501 -0.811389,0.652639 -1.834446,0.987778 -1.005417,0.335139 -1.993195,0.335139 -1.322918,0 -2.41653,-0.546806 -1.093612,-0.564445 -1.887362,-1.481667 -0.793751,-0.934862 -1.234723,-2.081391 -0.440973,-1.164167 -0.440973,-2.345973 z"
           style="font-weight:600;font-family:Raleway;-inkscape-font-specification:'Raleway Semi-Bold'"
           id="path3665" />
        <path
           d="m 113.72794,34.181012 v 12.52362 h -1.9932 v -5.520976 h -6.31472 v 5.520976 h -1.97556 v -12.52362 h 1.97556 v 5.238754 h 6.31472 v -5.238754 z"
           style="font-weight:600;font-family:Raleway;-inkscape-font-specification:'Raleway Semi-Bold'"
           id="path3667" />
      </g>
      <g
         aria-label="Front/Back-end Developer &amp; UI/UX Designer"
         id="text21441"
         style="font-size:4.23333px;line-height:1.25;letter-spacing:0.80774px;fill:#212121;fill-opacity:0.8;stroke-width:0.46203">
        <path
           d="M 1.7032538,52.928635 H 0.44028282 v 1.329116 H 0.04340815 V 51.248119 H 1.9078923 v 0.326594 H 0.44028282 v 1.029394 H 1.7032538 Z"
           style="font-family:Roboto;-inkscape-font-specification:Roboto"
           id="path3688" />
        <path
           d="m 4.1625711,52.364329 q -0.086816,-0.01447 -0.1881021,-0.01447 -0.3762041,0 -0.5105627,0.320394 v 1.587498 H 3.081501 v -2.236554 h 0.37207 l 0.0062,0.258382 q 0.188102,-0.299723 0.5333003,-0.299723 0.111621,0 0.1694986,0.02894 z"
           style="font-family:Roboto;-inkscape-font-specification:Roboto"
           id="path3690" />
        <path
           d="m 5.1770167,53.118804 q 0,-0.328662 0.1281575,-0.591178 0.1302245,-0.262516 0.3596676,-0.405143 0.2315103,-0.142627 0.5270992,-0.142627 0.4568193,0 0.7379388,0.31626 0.2831866,0.316259 0.2831866,0.841291 v 0.02687 q 0,0.326595 -0.1260903,0.587044 -0.1240234,0.258382 -0.3576007,0.403076 -0.2315102,0.144694 -0.5333003,0.144694 -0.4547522,0 -0.7379388,-0.31626 -0.2811196,-0.316259 -0.2811196,-0.837157 z m 0.3844724,0.04548 q 0,0.37207 0.1715656,0.597379 0.1736326,0.225309 0.4630204,0.225309 0.2914548,0 0.4630205,-0.227376 0.1715656,-0.229443 0.1715656,-0.640787 0,-0.367936 -0.1756998,-0.595312 -0.1736326,-0.229443 -0.4630204,-0.229443 -0.2831866,0 -0.4568193,0.225309 -0.1736326,0.225309 -0.1736326,0.644921 z"
           style="font-family:Roboto;-inkscape-font-specification:Roboto"
           id="path3692" />
        <path
           d="m 8.8620983,52.021197 0.012402,0.28112 q 0.2563148,-0.322461 0.669726,-0.322461 0.7090003,0 0.7152013,0.799951 v 1.477944 H 9.8770226 V 52.77774 q -0.00207,-0.241846 -0.111621,-0.357601 -0.1074869,-0.115755 -0.3369301,-0.115755 -0.186035,0 -0.3265947,0.09922 -0.1405598,0.09922 -0.2191079,0.260449 v 1.593699 H 8.5003636 v -2.236554 z"
           style="font-family:Roboto;-inkscape-font-specification:Roboto"
           id="path3694" />
        <path
           d="m 12.166841,51.479629 v 0.541568 h 0.417546 v 0.295589 h -0.417546 v 1.386995 q 0,0.134358 0.05581,0.202571 0.05581,0.06615 0.190169,0.06615 0.06615,0 0.181901,-0.02481 v 0.310058 q -0.150895,0.04134 -0.293522,0.04134 -0.256315,0 -0.386539,-0.15503 -0.130225,-0.155029 -0.130225,-0.440282 v -1.386995 h -0.40721 v -0.295589 h 0.40721 v -0.541568 z"
           style="font-family:Roboto;-inkscape-font-specification:Roboto"
           id="path3696" />
        <path
           d="m 13.913024,54.516133 h -0.328661 l 1.256769,-3.268014 h 0.326595 z"
           style="font-family:Roboto;-inkscape-font-specification:Roboto"
           id="path3698" />
        <path
           d="m 16.448823,54.257751 v -3.009632 h 0.983918 q 0.489892,0 0.735872,0.202571 0.248047,0.202571 0.248047,0.599446 0,0.21084 -0.11989,0.374137 -0.119889,0.161231 -0.326594,0.250114 0.243912,0.06821 0.384472,0.260449 0.142627,0.190169 0.142627,0.454752 0,0.405143 -0.262516,0.636653 -0.262516,0.23151 -0.742073,0.23151 z m 0.396874,-1.407664 v 1.083137 h 0.655257 q 0.276985,0 0.436149,-0.142627 0.16123,-0.144694 0.16123,-0.396875 0,-0.543635 -0.591178,-0.543635 z m 0,-0.318327 h 0.599447 q 0.260449,0 0.415478,-0.130224 0.157096,-0.130225 0.157096,-0.353467 0,-0.248047 -0.144694,-0.359668 -0.144694,-0.113688 -0.440283,-0.113688 h -0.587044 z"
           style="font-family:Roboto;-inkscape-font-specification:Roboto"
           id="path3700" />
        <path
           d="m 21.214974,54.257751 q -0.03307,-0.06614 -0.05374,-0.235644 -0.26665,0.276986 -0.636653,0.276986 -0.330729,0 -0.543636,-0.186035 -0.21084,-0.188102 -0.21084,-0.475423 0,-0.349333 0.264583,-0.541569 0.266651,-0.194303 0.748275,-0.194303 h 0.37207 v -0.1757 q 0,-0.200504 -0.11989,-0.318326 -0.119889,-0.119889 -0.353466,-0.119889 -0.204639,0 -0.343131,0.103352 -0.138493,0.103353 -0.138493,0.250114 h -0.384472 q 0,-0.167431 0.117822,-0.322461 0.119889,-0.157096 0.32246,-0.248046 0.204639,-0.09095 0.448551,-0.09095 0.38654,0 0.605648,0.194303 0.219108,0.192237 0.227376,0.531234 v 1.029393 q 0,0.307992 0.07855,0.489893 v 0.03307 z m -0.634586,-0.291454 q 0.179834,0 0.341064,-0.09302 0.161231,-0.09302 0.233578,-0.241845 v -0.458887 h -0.299723 q -0.702799,0 -0.702799,0.411344 0,0.179834 0.119889,0.28112 0.119889,0.101286 0.307991,0.101286 z"
           style="font-family:Roboto;-inkscape-font-specification:Roboto"
           id="path3702" />
        <path
           d="m 23.845858,53.986967 q 0.204638,0 0.3576,-0.124023 0.152962,-0.124023 0.169499,-0.310058 h 0.361735 q -0.01034,0.192236 -0.132292,0.365868 -0.121956,0.173633 -0.326595,0.276986 -0.202571,0.103353 -0.429947,0.103353 -0.45682,0 -0.727604,-0.303858 -0.268717,-0.305924 -0.268717,-0.83509 v -0.06408 q 0,-0.326595 0.119889,-0.580842 0.119889,-0.254248 0.343131,-0.394808 0.225309,-0.14056 0.531234,-0.14056 0.376204,0 0.62425,0.225309 0.250114,0.225309 0.266651,0.584977 h -0.361735 q -0.01654,-0.217041 -0.165365,-0.355534 -0.146761,-0.140559 -0.363801,-0.140559 -0.291455,0 -0.452686,0.210839 -0.159163,0.208773 -0.159163,0.605648 v 0.07235 q 0,0.386539 0.159163,0.595312 0.159164,0.208772 0.454753,0.208772 z"
           style="font-family:Roboto;-inkscape-font-specification:Roboto"
           id="path3704" />
        <path
           d="M 26.596629,53.222157 26.35685,53.47227 v 0.785481 h -0.382405 v -3.174997 h 0.382405 v 1.920295 l 0.204639,-0.24598 0.696598,-0.735872 h 0.465087 l -0.87023,0.934309 0.971516,1.302245 h -0.448551 z"
           style="font-family:Roboto;-inkscape-font-specification:Roboto"
           id="path3706" />
        <path
           d="m 29.725672,53.13534 h -1.008723 v -0.312125 h 1.008723 z"
           style="font-family:Roboto;-inkscape-font-specification:Roboto"
           id="path3708" />
        <path
           d="m 31.831524,54.299093 q -0.454752,0 -0.740006,-0.297656 -0.285254,-0.299723 -0.285254,-0.799951 v -0.07028 q 0,-0.332796 0.126091,-0.593245 0.128157,-0.262516 0.355533,-0.409277 0.229443,-0.148828 0.496094,-0.148828 0.436148,0 0.677994,0.287321 0.241845,0.287321 0.241845,0.822688 v 0.159163 H 31.18867 q 0.0083,0.330729 0.192236,0.535368 0.186035,0.202571 0.471288,0.202571 0.202572,0 0.343132,-0.08268 0.140559,-0.08268 0.245979,-0.219108 l 0.233578,0.181901 q -0.28112,0.432015 -0.843359,0.432015 z m -0.04754,-2.005044 q -0.231511,0 -0.388607,0.169498 -0.157096,0.167432 -0.194303,0.471289 h 1.120344 v -0.02894 q -0.01654,-0.291455 -0.157096,-0.450618 -0.14056,-0.16123 -0.380338,-0.16123 z"
           style="font-family:Roboto;-inkscape-font-specification:Roboto"
           id="path3710" />
        <path
           d="m 34.313578,52.021197 0.0124,0.28112 q 0.256314,-0.322461 0.669726,-0.322461 0.709,0 0.715201,0.799951 v 1.477944 H 35.328503 V 52.77774 q -0.0021,-0.241846 -0.111621,-0.357601 -0.107487,-0.115755 -0.336931,-0.115755 -0.186035,0 -0.326594,0.09922 -0.14056,0.09922 -0.219108,0.260449 v 1.593699 h -0.382405 v -2.236554 z"
           style="font-family:Roboto;-inkscape-font-specification:Roboto"
           id="path3712" />
        <path
           d="m 37.006474,53.120871 q 0,-0.514697 0.243912,-0.826822 0.243913,-0.314193 0.638721,-0.314193 0.39274,0 0.622183,0.268717 v -1.165819 h 0.382406 v 3.174997 h -0.3514 l -0.0186,-0.239778 q -0.229444,0.28112 -0.638721,0.28112 -0.388606,0 -0.634586,-0.318327 -0.243912,-0.318327 -0.243912,-0.830956 z m 0.382405,0.04341 q 0,0.380338 0.157096,0.595312 0.157097,0.214974 0.434082,0.214974 0.363802,0 0.531233,-0.326595 v -1.027327 q -0.171565,-0.316259 -0.527099,-0.316259 -0.281119,0 -0.438216,0.217041 -0.157096,0.217041 -0.157096,0.642854 z"
           style="font-family:Roboto;-inkscape-font-specification:Roboto"
           id="path3714" />
        <path
           d="m 42.214497,54.257751 v -3.009632 h 0.84956 q 0.392741,0 0.694531,0.173632 0.30179,0.173633 0.465087,0.494027 0.165365,0.320393 0.167432,0.735871 v 0.192236 q 0,0.425814 -0.165365,0.746208 -0.163297,0.320393 -0.469221,0.491959 -0.303857,0.171565 -0.709,0.175699 z m 0.396875,-2.683038 v 2.358511 h 0.417545 q 0.458887,0 0.713134,-0.285254 0.256315,-0.285254 0.256315,-0.812353 v -0.175699 q 0,-0.51263 -0.241845,-0.795817 -0.239779,-0.285254 -0.682129,-0.289388 z"
           style="font-family:Roboto;-inkscape-font-specification:Roboto"
           id="path3716" />
        <path
           d="m 46.668522,54.299093 q -0.454752,0 -0.740006,-0.297656 -0.285254,-0.299723 -0.285254,-0.799951 v -0.07028 q 0,-0.332796 0.126091,-0.593245 0.128157,-0.262516 0.355533,-0.409277 0.229443,-0.148828 0.496094,-0.148828 0.436148,0 0.677994,0.287321 0.241845,0.287321 0.241845,0.822688 v 0.159163 h -1.515151 q 0.0083,0.330729 0.192236,0.535368 0.186035,0.202571 0.471288,0.202571 0.202572,0 0.343132,-0.08268 0.140559,-0.08268 0.245979,-0.219108 l 0.233578,0.181901 q -0.28112,0.432015 -0.843359,0.432015 z m -0.04754,-2.005044 q -0.231511,0 -0.388607,0.169498 -0.157096,0.167432 -0.194303,0.471289 h 1.120344 v -0.02894 q -0.01654,-0.291455 -0.157096,-0.450618 -0.14056,-0.16123 -0.380338,-0.16123 z"
           style="font-family:Roboto;-inkscape-font-specification:Roboto"
           id="path3718" />
        <path
           d="m 49.501977,53.738921 0.553971,-1.717724 h 0.390674 l -0.802018,2.236554 h -0.291455 l -0.810286,-2.236554 h 0.390674 z"
           style="font-family:Roboto;-inkscape-font-specification:Roboto"
           id="path3720" />
        <path
           d="m 52.5256,54.299093 q -0.454752,0 -0.740005,-0.297656 -0.285254,-0.299723 -0.285254,-0.799951 v -0.07028 q 0,-0.332796 0.12609,-0.593245 0.128158,-0.262516 0.355534,-0.409277 0.229443,-0.148828 0.496093,-0.148828 0.436149,0 0.677994,0.287321 0.241846,0.287321 0.241846,0.822688 v 0.159163 h -1.515152 q 0.0083,0.330729 0.192236,0.535368 0.186035,0.202571 0.471289,0.202571 0.202571,0 0.343131,-0.08268 0.14056,-0.08268 0.24598,-0.219108 l 0.233577,0.181901 Q 53.08784,54.299093 52.5256,54.299093 Z m -0.04754,-2.005044 q -0.23151,0 -0.388606,0.169498 -0.157097,0.167432 -0.194304,0.471289 h 1.120345 v -0.02894 q -0.01654,-0.291455 -0.157097,-0.450618 -0.140559,-0.16123 -0.380338,-0.16123 z"
           style="font-family:Roboto;-inkscape-font-specification:Roboto"
           id="path3722" />
        <path
           d="m 55.061398,54.257751 h -0.382405 v -3.174997 h 0.382405 z"
           style="font-family:Roboto;-inkscape-font-specification:Roboto"
           id="path3724" />
        <path
           d="m 56.377635,53.118804 q 0,-0.328662 0.128157,-0.591178 0.130224,-0.262516 0.359668,-0.405143 0.23151,-0.142627 0.527099,-0.142627 0.456819,0 0.737939,0.31626 0.283186,0.316259 0.283186,0.841291 v 0.02687 q 0,0.326595 -0.12609,0.587044 -0.124023,0.258382 -0.357601,0.403076 -0.23151,0.144694 -0.5333,0.144694 -0.454752,0 -0.737939,-0.31626 -0.281119,-0.316259 -0.281119,-0.837157 z m 0.384472,0.04548 q 0,0.37207 0.171565,0.597379 0.173633,0.225309 0.463021,0.225309 0.291455,0 0.46302,-0.227376 0.171566,-0.229443 0.171566,-0.640787 0,-0.367936 -0.1757,-0.595312 -0.173632,-0.229443 -0.46302,-0.229443 -0.283187,0 -0.456819,0.225309 -0.173633,0.225309 -0.173633,0.644921 z"
           style="font-family:Roboto;-inkscape-font-specification:Roboto"
           id="path3726" />
        <path
           d="m 61.59027,53.164279 q 0,0.510563 -0.233577,0.822688 -0.233577,0.312126 -0.632519,0.312126 -0.40721,0 -0.640787,-0.258382 v 1.076936 h -0.382406 v -3.09645 h 0.349333 l 0.0186,0.248047 q 0.233578,-0.289388 0.649056,-0.289388 0.403076,0 0.636653,0.303857 0.235644,0.303858 0.235644,0.845426 z m -0.382405,-0.04341 q 0,-0.378271 -0.16123,-0.597379 -0.161231,-0.219108 -0.44235,-0.219108 -0.347266,0 -0.520898,0.307991 v 1.068668 q 0.171565,0.305924 0.525032,0.305924 0.274918,0 0.436149,-0.217041 0.163297,-0.219108 0.163297,-0.649055 z"
           style="font-family:Roboto;-inkscape-font-specification:Roboto"
           id="path3728" />
        <path
           d="m 63.809807,54.299093 q -0.454752,0 -0.740006,-0.297656 -0.285254,-0.299723 -0.285254,-0.799951 v -0.07028 q 0,-0.332796 0.126091,-0.593245 0.128157,-0.262516 0.355533,-0.409277 0.229443,-0.148828 0.496094,-0.148828 0.436148,0 0.677994,0.287321 0.241845,0.287321 0.241845,0.822688 v 0.159163 h -1.515151 q 0.0083,0.330729 0.192236,0.535368 0.186035,0.202571 0.471288,0.202571 0.202572,0 0.343132,-0.08268 0.140559,-0.08268 0.245979,-0.219108 l 0.233577,0.181901 q -0.281119,0.432015 -0.843358,0.432015 z m -0.04754,-2.005044 q -0.231511,0 -0.388607,0.169498 -0.157096,0.167432 -0.194303,0.471289 h 1.120344 v -0.02894 q -0.01654,-0.291455 -0.157096,-0.450618 -0.14056,-0.16123 -0.380338,-0.16123 z"
           style="font-family:Roboto;-inkscape-font-specification:Roboto"
           id="path3730" />
        <path
           d="m 67.011196,52.364329 q -0.08682,-0.01447 -0.188102,-0.01447 -0.376204,0 -0.510562,0.320394 v 1.587498 h -0.382406 v -2.236554 h 0.37207 l 0.0062,0.258382 q 0.188102,-0.299723 0.5333,-0.299723 0.111621,0 0.169498,0.02894 z"
           style="font-family:Roboto;-inkscape-font-specification:Roboto"
           id="path3732" />
        <path
           d="m 69.945459,53.449533 q 0,-0.217041 0.119889,-0.398942 0.121956,-0.181901 0.46302,-0.423746 -0.200504,-0.243913 -0.268717,-0.392741 -0.06821,-0.148828 -0.06821,-0.295589 0,-0.343131 0.202572,-0.537434 0.202571,-0.194304 0.549836,-0.194304 0.310059,0 0.51263,0.181901 0.202572,0.179834 0.202572,0.454753 0,0.1819 -0.09302,0.33693 -0.09095,0.152962 -0.320394,0.32246 l -0.221174,0.163298 0.669726,0.79995 q 0.140559,-0.268717 0.140559,-0.597379 h 0.345199 q 0,0.527099 -0.254248,0.874365 l 0.429947,0.514696 H 71.896759 L 71.696255,54.02004 q -0.152963,0.136426 -0.359668,0.208773 -0.204639,0.07028 -0.417545,0.07028 -0.440283,0 -0.706933,-0.233578 -0.26665,-0.233577 -0.26665,-0.615982 z m 0.973583,0.537434 q 0.303857,0 0.556038,-0.23151 l -0.733805,-0.878499 -0.06821,0.04961 q -0.345198,0.254248 -0.345198,0.522965 0,0.243912 0.157096,0.390673 0.159163,0.146761 0.434082,0.146761 z m -0.345199,-2.060854 q 0,0.198437 0.243913,0.496093 l 0.243913,-0.171565 q 0.140559,-0.09922 0.192236,-0.188103 0.05168,-0.09095 0.05168,-0.219107 0,-0.138493 -0.103353,-0.229444 -0.103352,-0.09302 -0.260449,-0.09302 -0.169498,0 -0.268717,0.115755 -0.09922,0.113688 -0.09922,0.289388 z"
           style="font-family:Roboto;-inkscape-font-specification:Roboto"
           id="path3734" />
        <path
           d="m 77.499588,51.248119 v 2.046385 q -0.0021,0.425813 -0.268717,0.696597 -0.264583,0.270785 -0.719335,0.303857 l -0.10542,0.0041 q -0.494026,0 -0.787548,-0.266651 -0.293522,-0.26665 -0.297656,-0.733804 v -2.050519 h 0.39274 v 2.038116 q 0,0.326595 0.179834,0.508496 0.179834,0.179834 0.51263,0.179834 0.33693,0 0.514697,-0.179834 0.179833,-0.179834 0.179833,-0.506429 v -2.040183 z"
           style="font-family:Roboto;-inkscape-font-specification:Roboto"
           id="path3736" />
        <path
           d="M 79.359465,54.257751 H 78.96259 v -3.009632 h 0.396875 z"
           style="font-family:Roboto;-inkscape-font-specification:Roboto"
           id="path3738" />
        <path
           d="m 80.907204,54.516133 h -0.328662 l 1.25677,-3.268014 h 0.326595 z"
           style="font-family:Roboto;-inkscape-font-specification:Roboto"
           id="path3740" />
        <path
           d="m 85.561737,51.248119 v 2.046385 q -0.0021,0.425813 -0.268717,0.696597 -0.264583,0.270785 -0.719335,0.303857 l -0.10542,0.0041 q -0.494026,0 -0.787548,-0.266651 -0.293522,-0.26665 -0.297656,-0.733804 v -2.050519 h 0.39274 v 2.038116 q 0,0.326595 0.179834,0.508496 0.179834,0.179834 0.51263,0.179834 0.33693,0 0.514697,-0.179834 0.179834,-0.179834 0.179834,-0.506429 v -2.040183 z"
           style="font-family:Roboto;-inkscape-font-specification:Roboto"
           id="path3742" />
        <path
           d="m 87.977644,52.401536 0.721403,-1.153417 h 0.467154 l -0.950845,1.492414 0.973583,1.517218 H 88.71765 l -0.740006,-1.174087 -0.74414,1.174087 h -0.469221 l 0.97565,-1.517218 -0.952913,-1.492414 h 0.465088 z"
           style="font-family:Roboto;-inkscape-font-specification:Roboto"
           id="path3744" />
        <path
           d="m 92.315442,54.257751 v -3.009632 h 0.84956 q 0.39274,0 0.69453,0.173632 0.30179,0.173633 0.465088,0.494027 0.165364,0.320393 0.167431,0.735871 v 0.192236 q 0,0.425814 -0.165364,0.746208 -0.163297,0.320393 -0.469222,0.491959 -0.303857,0.171565 -0.709,0.175699 z m 0.396875,-2.683038 v 2.358511 h 0.417545 q 0.458886,0 0.713134,-0.285254 0.256315,-0.285254 0.256315,-0.812353 v -0.175699 q 0,-0.51263 -0.241846,-0.795817 -0.239778,-0.285254 -0.682128,-0.289388 z"
           style="font-family:Roboto;-inkscape-font-specification:Roboto"
           id="path3746" />
        <path
           d="m 96.769466,54.299093 q -0.454752,0 -0.740006,-0.297656 -0.285253,-0.299723 -0.285253,-0.799951 v -0.07028 q 0,-0.332796 0.12609,-0.593245 0.128158,-0.262516 0.355534,-0.409277 0.229443,-0.148828 0.496093,-0.148828 0.436149,0 0.677994,0.287321 0.241846,0.287321 0.241846,0.822688 v 0.159163 h -1.515152 q 0.0083,0.330729 0.192236,0.535368 0.186035,0.202571 0.471289,0.202571 0.202571,0 0.343131,-0.08268 0.14056,-0.08268 0.24598,-0.219108 l 0.233577,0.181901 q -0.28112,0.432015 -0.843359,0.432015 z m -0.04754,-2.005044 q -0.23151,0 -0.388606,0.169498 -0.157097,0.167432 -0.194304,0.471289 h 1.120345 v -0.02894 q -0.01654,-0.291455 -0.157097,-0.450618 -0.140559,-0.16123 -0.380338,-0.16123 z"
           style="font-family:Roboto;-inkscape-font-specification:Roboto"
           id="path3748" />
        <path
           d="m 100.19203,53.664507 q 0,-0.15503 -0.11782,-0.239779 -0.11576,-0.08682 -0.407215,-0.148828 -0.289388,-0.06201 -0.460953,-0.148828 -0.169499,-0.08682 -0.252181,-0.206705 -0.08062,-0.11989 -0.08062,-0.285254 0,-0.274919 0.23151,-0.465088 0.233577,-0.190169 0.595312,-0.190169 0.380342,0 0.615982,0.196371 0.23771,0.19637 0.23771,0.502294 h -0.38447 q 0,-0.157096 -0.13436,-0.270784 -0.132291,-0.113688 -0.334862,-0.113688 -0.208773,0 -0.326595,0.09095 -0.117822,0.09095 -0.117822,0.237712 0,0.138492 0.109554,0.208772 0.109554,0.07028 0.394808,0.134359 0.287317,0.06408 0.465087,0.152962 0.17777,0.08888 0.26252,0.214974 0.0868,0.124023 0.0868,0.303857 0,0.299723 -0.23978,0.481624 -0.23977,0.179834 -0.62218,0.179834 -0.268717,0 -0.475422,-0.09508 -0.206706,-0.09509 -0.324528,-0.264583 -0.115755,-0.171566 -0.115755,-0.370003 h 0.382405 q 0.01033,0.192236 0.152962,0.305924 0.144694,0.111621 0.380338,0.111621 0.217041,0 0.34727,-0.08682 0.13229,-0.08888 0.13229,-0.235644 z"
           style="font-family:Roboto;-inkscape-font-specification:Roboto"
           id="path3750" />
        <path
           d="m 102.29582,54.257751 h -0.38241 v -2.236554 h 0.38241 z m -0.41342,-2.829799 q 0,-0.09302 0.0558,-0.157096 0.0579,-0.06408 0.1695,-0.06408 0.11162,0 0.1695,0.06408 0.0579,0.06408 0.0579,0.157096 0,0.09302 -0.0579,0.15503 -0.0579,0.06201 -0.1695,0.06201 -0.11162,0 -0.1695,-0.06201 -0.0558,-0.06201 -0.0558,-0.15503 z"
           style="font-family:Roboto;-inkscape-font-specification:Roboto"
           id="path3752" />
        <path
           d="m 103.62239,53.120871 q 0,-0.522965 0.24184,-0.830956 0.24185,-0.310059 0.64079,-0.310059 0.40928,0 0.63872,0.289388 l 0.0186,-0.248047 h 0.34934 v 2.182811 q 0,0.434082 -0.25839,0.684195 -0.25631,0.250114 -0.69039,0.250114 -0.24185,0 -0.47336,-0.103353 -0.23151,-0.103352 -0.35347,-0.283186 l 0.19844,-0.229443 q 0.24598,0.303857 0.60152,0.303857 0.27905,0 0.43408,-0.157096 0.15709,-0.157097 0.15709,-0.44235 v -0.192237 q -0.22944,0.264584 -0.62631,0.264584 -0.39275,0 -0.63666,-0.31626 -0.24184,-0.316259 -0.24184,-0.861962 z m 0.38447,0.04341 q 0,0.378271 0.15503,0.595312 0.15503,0.214974 0.43408,0.214974 0.36173,0 0.53123,-0.328662 v -1.021125 q -0.1757,-0.320394 -0.5271,-0.320394 -0.27905,0 -0.43614,0.217041 -0.1571,0.217041 -0.1571,0.642854 z"
           style="font-family:Roboto;-inkscape-font-specification:Roboto"
           id="path3754" />
        <path
           d="m 107.25579,52.021197 0.0124,0.28112 q 0.25632,-0.322461 0.66973,-0.322461 0.709,0 0.7152,0.799951 v 1.477944 h -0.38241 V 52.77774 q -0.002,-0.241846 -0.11162,-0.357601 -0.10748,-0.115755 -0.33693,-0.115755 -0.18603,0 -0.32659,0.09922 -0.14056,0.09922 -0.21911,0.260449 v 1.593699 h -0.38241 v -2.236554 z"
           style="font-family:Roboto;-inkscape-font-specification:Roboto"
           id="path3756" />
        <path
           d="m 110.96981,54.299093 q -0.45476,0 -0.74001,-0.297656 -0.28525,-0.299723 -0.28525,-0.799951 v -0.07028 q 0,-0.332796 0.12609,-0.593245 0.12815,-0.262516 0.35553,-0.409277 0.22944,-0.148828 0.49609,-0.148828 0.43615,0 0.678,0.287321 0.24184,0.287321 0.24184,0.822688 v 0.159163 h -1.51515 q 0.008,0.330729 0.19224,0.535368 0.18603,0.202571 0.47129,0.202571 0.20257,0 0.34313,-0.08268 0.14056,-0.08268 0.24598,-0.219108 l 0.23358,0.181901 q -0.28112,0.432015 -0.84336,0.432015 z m -0.0476,-2.005044 q -0.23151,0 -0.3886,0.169498 -0.1571,0.167432 -0.19431,0.471289 h 1.12035 v -0.02894 q -0.0165,-0.291455 -0.1571,-0.450618 -0.14056,-0.16123 -0.38034,-0.16123 z"
           style="font-family:Roboto;-inkscape-font-specification:Roboto"
           id="path3758" />
        <path
           d="m 114.1712,52.364329 q -0.0868,-0.01447 -0.1881,-0.01447 -0.37621,0 -0.51056,0.320394 v 1.587498 h -0.38241 v -2.236554 h 0.37207 l 0.006,0.258382 q 0.1881,-0.299723 0.5333,-0.299723 0.11162,0 0.1695,0.02894 z"
           style="font-family:Roboto;-inkscape-font-specification:Roboto"
           id="path3760" />
      </g>
    </g>
  </g>
</svg>
